<svg width="135" height="48" viewBox="0 0 135 48" fill="none" xmlns="http://www.w3.org/2000/svg">
<line x1="0.5" x2="0.5" y2="48" stroke="#F1F1F1"/>
<path d="M15.4901 20V17.8125L15.902 17.7912C16.4607 17.758 16.9034 17.5568 17.2301 17.1875C17.5616 16.8182 17.8054 16.224 17.9616 15.4048C18.1226 14.5857 18.2292 13.4872 18.2812 12.1094L18.5227 5.45455H28.054V20H25.4759V7.62074H20.9801L20.7528 12.9261C20.6866 14.517 20.5114 15.8357 20.2273 16.8821C19.9479 17.9285 19.4886 18.7098 18.8494 19.2259C18.215 19.742 17.3319 20 16.2003 20H15.4901ZM35.5717 20.2131C34.5064 20.2131 33.5831 19.9787 32.8018 19.5099C32.0206 19.0412 31.4145 18.3854 30.9837 17.5426C30.5575 16.6998 30.3445 15.715 30.3445 14.5881C30.3445 13.4612 30.5575 12.474 30.9837 11.6264C31.4145 10.7789 32.0206 10.1207 32.8018 9.65199C33.5831 9.18324 34.5064 8.94886 35.5717 8.94886C36.6371 8.94886 37.5604 9.18324 38.3416 9.65199C39.1229 10.1207 39.7266 10.7789 40.1527 11.6264C40.5836 12.474 40.799 13.4612 40.799 14.5881C40.799 15.715 40.5836 16.6998 40.1527 17.5426C39.7266 18.3854 39.1229 19.0412 38.3416 19.5099C37.5604 19.9787 36.6371 20.2131 35.5717 20.2131ZM35.5859 18.1534C36.1636 18.1534 36.6465 17.9948 37.0348 17.6776C37.4231 17.3556 37.7119 16.9247 37.9013 16.3849C38.0954 15.8452 38.1925 15.2438 38.1925 14.581C38.1925 13.9134 38.0954 13.3097 37.9013 12.7699C37.7119 12.2254 37.4231 11.7921 37.0348 11.4702C36.6465 11.1482 36.1636 10.9872 35.5859 10.9872C34.9941 10.9872 34.5017 11.1482 34.1087 11.4702C33.7204 11.7921 33.4292 12.2254 33.2351 12.7699C33.0457 13.3097 32.951 13.9134 32.951 14.581C32.951 15.2438 33.0457 15.8452 33.2351 16.3849C33.4292 16.9247 33.7204 17.3556 34.1087 17.6776C34.5017 17.9948 34.9941 18.1534 35.5859 18.1534ZM50.1971 9.09091V11.2003H45.4954V20H42.9812V9.09091H50.1971ZM56.5678 20.2131C55.5025 20.2131 54.5792 19.9787 53.7979 19.5099C53.0167 19.0412 52.4106 18.3854 51.9798 17.5426C51.5536 16.6998 51.3406 15.715 51.3406 14.5881C51.3406 13.4612 51.5536 12.474 51.9798 11.6264C52.4106 10.7789 53.0167 10.1207 53.7979 9.65199C54.5792 9.18324 55.5025 8.94886 56.5678 8.94886C57.6332 8.94886 58.5565 9.18324 59.3377 9.65199C60.119 10.1207 60.7227 10.7789 61.1488 11.6264C61.5797 12.474 61.7951 13.4612 61.7951 14.5881C61.7951 15.715 61.5797 16.6998 61.1488 17.5426C60.7227 18.3854 60.119 19.0412 59.3377 19.5099C58.5565 19.9787 57.6332 20.2131 56.5678 20.2131ZM56.582 18.1534C57.1597 18.1534 57.6426 17.9948 58.0309 17.6776C58.4192 17.3556 58.708 16.9247 58.8974 16.3849C59.0915 15.8452 59.1886 15.2438 59.1886 14.581C59.1886 13.9134 59.0915 13.3097 58.8974 12.7699C58.708 12.2254 58.4192 11.7921 58.0309 11.4702C57.6426 11.1482 57.1597 10.9872 56.582 10.9872C55.9902 10.9872 55.4978 11.1482 55.1048 11.4702C54.7165 11.7921 54.4253 12.2254 54.2312 12.7699C54.0418 13.3097 53.9471 13.9134 53.9471 14.581C53.9471 15.2438 54.0418 15.8452 54.2312 16.3849C54.4253 16.9247 54.7165 17.3556 55.1048 17.6776C55.4978 17.9948 55.9902 18.1534 56.582 18.1534ZM62.7752 11.2003V9.09091H72.3207V11.2003H68.7908V20H66.305V11.2003H62.7752ZM76.8466 16.5199L81.2145 9.09091H83.8565V20H81.3707V12.5639L77.017 20H74.3679V9.09091H76.8466V16.5199ZM86.4968 20V9.09091H95.7085V20H93.2298V11.2003H88.9542V20H86.4968Z" fill="#101010"/>
</svg>
