<svg width="40" height="40" viewBox="0 0 40 40" fill="none" xmlns="http://www.w3.org/2000/svg">
<path d="M16.5518 2.5C17.0429 2.5 17.5139 2.69754 17.8612 3.04917C18.2084 3.40081 18.4035 3.87772 18.4035 4.375V20C18.4035 20.3315 18.5336 20.6495 18.7651 20.8839C18.9966 21.1183 19.3106 21.25 19.6381 21.25C19.9655 21.25 20.2795 21.1183 20.511 20.8839C20.7425 20.6495 20.8726 20.3315 20.8726 20V13.6675L21.0849 13.6575C21.8676 13.6275 22.6577 13.6375 23.0996 13.725C23.4305 13.7925 23.8255 13.965 24.2058 14.18C24.3959 14.285 24.5761 14.5475 24.5761 14.965V20C24.5761 20.3315 24.7062 20.6495 24.9377 20.8839C25.1692 21.1183 25.4832 21.25 25.8106 21.25C26.138 21.25 26.452 21.1183 26.6836 20.8839C26.9151 20.6495 27.0451 20.3315 27.0451 20V16.0875L27.3069 16.0625C28.0871 16.0025 28.7488 16.0375 29.0549 16.1625C29.3463 16.2775 29.7956 16.68 30.2549 17.2375C30.4549 17.4775 30.6252 17.7125 30.7487 17.885V21.25C30.7487 21.5815 30.8788 21.8995 31.1103 22.1339C31.3418 22.3683 31.6558 22.5 31.9832 22.5C32.3106 22.5 32.6246 22.3683 32.8561 22.1339C33.0877 21.8995 33.2177 21.5815 33.2177 21.25V18.75H34.0621C34.4072 18.75 34.7484 18.8232 35.0638 18.965C35.3792 19.1067 35.6618 19.3138 35.8932 19.5729C36.1247 19.8321 36.3 20.1374 36.4077 20.4693C36.5155 20.8013 36.5533 21.1524 36.5188 21.5L35.8497 28.2875C35.7633 29.1598 35.4966 30.0039 35.067 30.765L31.6227 36.87C31.5148 37.0613 31.3588 37.2203 31.1707 37.331C30.9825 37.4416 30.7688 37.4999 30.5512 37.5H14.9913C14.7623 37.5 14.5377 37.4355 14.3428 37.3136C14.1479 37.1917 13.9903 37.0174 13.8877 36.81L10.8458 30.6475L4.64364 20.185C4.48429 19.9145 4.42798 19.5944 4.48529 19.2848C4.5426 18.9752 4.70958 18.6975 4.95486 18.5038C5.20014 18.31 5.50685 18.2137 5.81734 18.2328C6.12784 18.2519 6.42076 18.3851 6.64108 18.6075L12.5914 24.6325C12.764 24.8076 12.9839 24.927 13.2234 24.9755C13.463 25.024 13.7113 24.9994 13.9371 24.9049C14.1628 24.8105 14.3558 24.6503 14.4916 24.4447C14.6274 24.2391 14.6999 23.9973 14.7 23.75V4.375C14.7 3.87772 14.8951 3.40081 15.2424 3.04917C15.5896 2.69754 16.0606 2.5 16.5518 2.5ZM20.8726 11.165V4.375C20.8726 3.21468 20.4173 2.10188 19.607 1.28141C18.7967 0.460936 17.6977 0 16.5518 0C15.4058 0 14.3068 0.460936 13.4965 1.28141C12.6862 2.10188 12.231 3.21468 12.231 4.375V20.7325L8.38668 16.84C7.73988 16.1887 6.88056 15.7988 5.97 15.7434C5.05943 15.6881 4.16021 15.9711 3.44109 16.5394C2.72197 17.1076 2.23239 17.9221 2.06421 18.8299C1.89604 19.7377 2.06083 20.6765 2.52768 21.47L8.67803 31.8525L11.6779 37.9275C11.9856 38.5504 12.4586 39.0743 13.0438 39.4404C13.6291 39.8064 14.3034 40.0002 14.9913 40H30.5512C31.204 39.9998 31.8451 39.8249 32.4097 39.493C32.9742 39.161 33.4421 38.684 33.7658 38.11L37.2101 32.0075C37.8123 30.9408 38.1858 29.7576 38.3064 28.535L38.9755 21.7475C39.0441 21.0524 38.9682 20.3505 38.7525 19.6869C38.5368 19.0234 38.1862 18.413 37.7233 17.895C37.2604 17.3771 36.6955 16.9631 36.0649 16.6798C35.4343 16.3964 34.752 16.25 34.0621 16.25H32.6276C32.4735 16.0384 32.3129 15.8316 32.1462 15.63C31.6746 15.0575 30.887 14.21 29.9734 13.84C29.0747 13.475 27.8846 13.51 27.1143 13.57L26.7884 13.6C26.5255 12.9187 26.0367 12.3512 25.4057 11.995C24.8377 11.6633 24.2233 11.4205 23.5836 11.275C22.8182 11.12 21.759 11.13 20.9911 11.16L20.8726 11.165Z" fill="black"/>
</svg>
