<svg width="130" height="40" viewBox="0 0 130 40" fill="none" xmlns="http://www.w3.org/2000/svg">
<path d="M19.9957 14.6644C17.0578 14.6644 14.6602 17.062 14.6602 20C14.6602 22.938 17.0578 25.3356 19.9957 25.3356C22.9336 25.3356 25.3312 22.938 25.3312 20C25.3312 17.062 22.9336 14.6644 19.9957 14.6644ZM35.9982 20C35.9982 17.7905 36.0182 15.601 35.8941 13.3955C35.7701 10.8338 35.1857 8.56027 33.3125 6.687C31.4352 4.80974 29.1657 4.22934 26.604 4.10526C24.3946 3.98118 22.2052 4.00119 19.9997 4.00119C17.7902 4.00119 15.6008 3.98118 13.3954 4.10526C10.8337 4.22934 8.56019 4.81374 6.68696 6.687C4.80972 8.56427 4.22934 10.8338 4.10526 13.3955C3.98118 15.605 4.00119 17.7945 4.00119 20C4.00119 22.2055 3.98118 24.399 4.10526 26.6045C4.22934 29.1662 4.81372 31.4397 6.68696 33.313C8.56419 35.1903 10.8337 35.7707 13.3954 35.8947C15.6048 36.0188 17.7943 35.9988 19.9997 35.9988C22.2092 35.9988 24.3986 36.0188 26.604 35.8947C29.1657 35.7707 31.4392 35.1863 33.3125 33.313C35.1897 31.4357 35.7701 29.1662 35.8941 26.6045C36.0222 24.399 35.9982 22.2095 35.9982 20ZM19.9957 28.2095C15.4527 28.2095 11.7863 24.5431 11.7863 20C11.7863 15.4569 15.4527 11.7905 19.9957 11.7905C24.5387 11.7905 28.2051 15.4569 28.2051 20C28.2051 24.5431 24.5387 28.2095 19.9957 28.2095ZM28.5413 13.3715C27.4806 13.3715 26.6241 12.5149 26.6241 11.4542C26.6241 10.3935 27.4806 9.53693 28.5413 9.53693C29.602 9.53693 30.4586 10.3935 30.4586 11.4542C30.4589 11.7061 30.4095 11.9556 30.3133 12.1883C30.217 12.4211 30.0758 12.6326 29.8977 12.8107C29.7196 12.9888 29.5082 13.13 29.2754 13.2262C29.0426 13.3225 28.7932 13.3718 28.5413 13.3715Z" fill="#2B8E53"/>
<path d="M69.9113 4H60.0887C51.1249 4 49 6.12493 49 15.0887V24.9113C49 33.8751 51.1249 36 60.0887 36H69.9113C78.8751 36 81 33.8751 81 24.9113V15.0887C81 6.12493 78.8541 4 69.9113 4ZM74.8332 26.8273H72.5103C71.6303 26.8273 71.3593 26.1293 69.7763 24.5254C68.4014 23.1924 67.7924 23.0154 67.4534 23.0154C66.9744 23.0154 66.8384 23.1504 66.8384 23.8074V25.9063C66.8384 26.4693 66.6614 26.8073 65.1715 26.8073C62.7076 26.8073 59.9737 25.3173 58.0567 22.5414C55.1658 18.4735 54.3748 15.4266 54.3748 14.7967C54.3748 14.4577 54.5098 14.1407 55.1608 14.1407H57.4887C58.0777 14.1407 58.3017 14.4117 58.5307 15.0417C59.6817 18.3645 61.5986 21.2755 62.3896 21.2755C62.6816 21.2755 62.8166 21.1405 62.8166 20.3955V16.9636C62.7276 15.3806 61.8946 15.2446 61.8946 14.6827C61.8946 14.4117 62.1186 14.1407 62.4776 14.1407H66.1385C66.6334 14.1407 66.8154 14.4117 66.8154 14.9947V19.6245C66.8154 20.1245 67.0394 20.3015 67.1744 20.3015C67.4664 20.3015 67.7164 20.1245 68.2574 19.5825C69.9293 17.7076 71.1273 14.8167 71.1273 14.8167C71.2833 14.4777 71.5543 14.1607 72.1433 14.1607H74.4712C75.1692 14.1607 75.3252 14.5197 75.1692 15.0197C74.8772 16.3736 72.0283 20.3945 72.0283 20.3945C71.7833 20.8005 71.6893 20.9775 72.0283 21.4305C72.2783 21.7694 73.0912 22.4724 73.6322 23.1024C74.6272 24.2324 75.3922 25.1803 75.5962 25.8363C75.8252 26.4873 75.4872 26.8263 74.8302 26.8263L74.8332 26.8273Z" fill="#2B8E53"/>
<mask id="mask0_224_514" style="mask-type:alpha" maskUnits="userSpaceOnUse" x="94" y="4" width="32" height="32">
<path d="M114.911 4H105.089C96.1249 4 94 6.12493 94 15.0887V24.9113C94 33.8751 96.1249 36 105.089 36H114.911C123.875 36 126 33.8751 126 24.9113V15.0887C126 6.12493 123.854 4 114.911 4Z" fill="#2B8E53"/>
</mask>
<g mask="url(#mask0_224_514)">
<path d="M99.843 4C96.6062 4 94 6.60624 94 9.84301V30.157C94 33.3938 96.6062 36 99.843 36H110.853V23.49H107.545V18.986H110.853V15.138C110.853 12.1148 112.808 9.33901 117.31 9.33901C119.133 9.33901 120.481 9.51402 120.481 9.51402L120.375 13.72C120.375 13.72 119 13.707 117.5 13.707C115.876 13.707 115.616 14.4551 115.616 15.6971V18.986H120.504L120.291 23.49H115.616V36.0001H120.157C123.394 36.0001 126 33.3938 126 30.1571V9.84304C126 6.60627 123.394 4.00003 120.157 4.00003L99.843 4Z" fill="#2B8E53"/>
</g>
</svg>
